<?xml version="1.0" encoding="iso-8859-1"?>
<!-- Generator: Adobe Illustrator 19.0.0, SVG Export Plug-In . SVG Version: 6.00 Build 0)  -->
<svg version="1.1" id="Capa_1" xmlns="http://www.w3.org/2000/svg" xmlns:xlink="http://www.w3.org/1999/xlink" x="0px" y="0px"
	 viewBox="0 0 512 512" style="enable-background:new 0 0 512 512;" xml:space="preserve">
<path style="fill:#E5E5E5;" d="M223.643,0.003c-10.019-0.188-18.219,8.322-18.219,18.343v82.87c0,9.874-8.004,17.878-17.878,17.878
	l0,0c-9.874,0-17.878-8.004-17.878-17.878V17.877C169.668,8.004,161.664,0,151.791,0l0,0c-9.874,0-17.878,8.004-17.878,17.878v82.87
	c0,10.021-8.2,18.531-18.219,18.343c-9.716-0.182-17.536-8.115-17.536-17.874V17.878C98.158,8.004,90.154,0,80.28,0l0,0
	c-9.873,0-17.878,8.004-17.878,17.878v111.829c0,44.254,27.066,80.013,64.138,91.32c2.901,0.885,4.806,3.662,4.695,6.693
	l-6.473,177.427h54.055l-6.473-177.427c-0.111-3.031,1.794-5.808,4.695-6.693c37.072-11.308,64.138-47.066,64.138-91.32V17.878
	C241.179,8.118,233.359,0.185,223.643,0.003z"/>
<path style="opacity:0.05;enable-background:new    ;" d="M226.503,0.307c1.906,2.843,3.021,6.262,3.021,9.942v111.829
	c0,43.292-25.902,78.454-61.735,90.548c-4.288,1.447-7.172,5.465-7.007,9.987l6.381,174.904h-42.121l-0.278,7.628h54.055
	l-6.473-177.427c-0.111-3.031,1.794-5.808,4.695-6.693c37.072-11.308,64.138-47.066,64.138-91.32V17.878
	C241.179,9.099,234.845,1.819,226.503,0.307z"/>
<path style="fill:#69BFE2;" d="M166.994,332.643h-30.407c-10.298,0-18.749,8.149-19.125,18.44l-4.405,120.745
	c-0.8,21.945,16.774,40.172,38.734,40.172l0,0c21.96,0,39.534-18.227,38.733-40.172l-4.405-120.745
	C185.743,340.792,177.292,332.643,166.994,332.643z"/>
<polygon style="opacity:0.1;enable-background:new    ;" points="189.774,451.262 113.808,451.262 113.261,466.262 190.321,466.262 
	"/>
<path style="opacity:0.1;enable-background:new    ;" d="M190.524,471.828l-4.405-120.745c-0.376-10.291-8.827-18.44-19.125-18.44
	h-15.352c10.298,0,18.749,8.149,19.125,18.44l4.405,120.745c0.705,19.317-12.829,35.746-31.057,39.406
	c2.48,0.498,5.045,0.766,7.676,0.766l0,0C173.751,512,191.325,493.773,190.524,471.828z"/>
<path style="fill:#E5E5E5;" d="M449.598,129.707C449.598,75.894,409.577,0,360.209,0s-89.388,75.894-89.388,129.707
	c0,44.254,27.066,80.013,64.138,91.32c2.901,0.885,4.806,3.662,4.695,6.693l-6.473,177.427h54.055l-6.473-177.427
	c-0.111-3.031,1.794-5.808,4.695-6.693C422.531,209.719,449.598,173.961,449.598,129.707z"/>
<path style="opacity:0.05;enable-background:new    ;" d="M385.459,221.027c37.072-11.308,64.138-47.066,64.138-91.32
	c0-44.334-27.166-103.647-64.341-123.169c31.051,24.514,52.662,75.981,52.662,115.525c0,44.254-27.066,80.013-64.138,91.32
	c-2.901,0.885-4.806,3.662-4.695,6.693l6.473,177.427H333.46l-0.279,7.645h54.055l-6.473-177.427
	C380.653,224.689,382.558,221.912,385.459,221.027z"/>
<path style="fill:#69BFE2;" d="M375.412,332.643h-30.407c-10.298,0-18.749,8.149-19.125,18.44l-4.405,120.745
	c-0.8,21.945,16.774,40.172,38.734,40.172l0,0c21.96,0,39.534-18.227,38.733-40.172l-4.405-120.745
	C394.162,340.792,385.71,332.643,375.412,332.643z"/>
<polygon style="opacity:0.1;enable-background:new    ;" points="398.192,451.262 322.226,451.262 321.679,466.262 398.739,466.262 
	"/>
<path style="opacity:0.05;enable-background:new    ;" d="M414.438,123.525c0-34.607-24.279-83.414-54.229-83.414
	s-54.229,48.807-54.229,83.414s24.279,61.137,54.229,61.137S414.438,158.132,414.438,123.525z"/>
<path style="opacity:0.1;enable-background:new    ;" d="M398.942,471.828l-4.405-120.745c-0.375-10.291-8.827-18.44-19.125-18.44
	H360.06c10.298,0,18.749,8.149,19.125,18.44l4.405,120.745c0.705,19.317-12.829,35.746-31.057,39.406
	c2.48,0.498,5.045,0.766,7.676,0.766l0,0C382.169,512,399.743,493.773,398.942,471.828z"/>
<g>
</g>
<g>
</g>
<g>
</g>
<g>
</g>
<g>
</g>
<g>
</g>
<g>
</g>
<g>
</g>
<g>
</g>
<g>
</g>
<g>
</g>
<g>
</g>
<g>
</g>
<g>
</g>
<g>
</g>
</svg>
