<?xml version="1.0" encoding="UTF-8"?>
<svg viewBox="0 0 46 46" version="1.1" xmlns="http://www.w3.org/2000/svg" xmlns:xlink="http://www.w3.org/1999/xlink">
  <!-- Generator: Sketch 47 (45396) - http://www.bohemiancoding.com/sketch -->
  <title>F_icon</title>
  <desc>Created with Sketch.</desc>
  <defs></defs>
  <g id="Page-1" stroke="none" stroke-width="1" fill="none" fill-rule="evenodd">
    <g id="F_icon" fill-rule="nonzero" fill="#FFFFFF">
      <path
          d="M41.465668,43.8822703 L2.51632432,43.8822703 C1.18137452,43.8822703 0.0998918919,42.8001081 0.0998918919,41.465668 L0.0998918919,2.51632432 C0.0998918919,1.1815444 1.1815444,0.0998918919 2.51632432,0.0998918919 L41.465668,0.0998918919 C42.8001081,0.0998918919 43.8819305,1.1815444 43.8819305,2.51632432 L43.8819305,41.465668 C43.8819305,42.800278 42.7999382,43.8822703 41.465668,43.8822703 Z M30.3088649,43.8822703 L30.3088649,26.9273205 L35.9998147,26.9273205 L36.8519537,20.3196757 L30.3088649,20.3196757 L30.3088649,16.101112 C30.3088649,14.1880463 30.8400927,12.8843552 33.5833822,12.8843552 L37.0823166,12.8828263 L37.0823166,6.97289575 C36.4771892,6.89237066 34.4001853,6.71246332 31.9837529,6.71246332 C26.9390425,6.71246332 23.4852973,9.79178378 23.4852973,15.4467181 L23.4852973,20.3196757 L17.7797375,20.3196757 L17.7797375,26.9273205 L23.4852973,26.9273205 L23.4852973,43.8822703 L30.3088649,43.8822703 Z"
          id="Combined-Shape"></path>
    </g>
  </g>
</svg>