<?xml version="1.0" encoding="UTF-8"?>
<svg viewBox="0 0 46 46" version="1.1" xmlns="http://www.w3.org/2000/svg" xmlns:xlink="http://www.w3.org/1999/xlink">
  <!-- Generator: Sketch 47 (45396) - http://www.bohemiancoding.com/sketch -->
  <title>Google_-G-_Logo</title>
  <desc>Created with Sketch.</desc>
  <defs>
    <path
        d="M43.4883721,18 L22.5116279,18 L22.5116279,26.5 L34.5860465,26.5 C33.4604651,31.9 28.7534884,35 22.5116279,35 C15.144186,35 9.20930233,29.2 9.20930233,22 C9.20930233,14.8 15.144186,9 22.5116279,9 C25.6837209,9 28.5488372,10.1 30.8,11.9 L37.3488372,5.5 C33.3581395,2.1 28.2418605,0 22.5116279,0 C10.027907,0 0,9.8 0,22 C0,34.2 10.027907,44 22.5116279,44 C33.7674419,44 44,36 44,22 C44,20.7 43.7953488,19.3 43.4883721,18 Z"
        id="path-1"></path>
    <path
        d="M43.4883721,18 L22.5116279,18 L22.5116279,26.5 L34.5860465,26.5 C33.4604651,31.9 28.7534884,35 22.5116279,35 C15.144186,35 9.20930233,29.2 9.20930233,22 C9.20930233,14.8 15.144186,9 22.5116279,9 C25.6837209,9 28.5488372,10.1 30.8,11.9 L37.3488372,5.5 C33.3581395,2.1 28.2418605,0 22.5116279,0 C10.027907,0 0,9.8 0,22 C0,34.2 10.027907,44 22.5116279,44 C33.7674419,44 44,36 44,22 C44,20.7 43.7953488,19.3 43.4883721,18 Z"
        id="path-3"></path>
    <path
        d="M43.4883721,18 L22.5116279,18 L22.5116279,26.5 L34.5860465,26.5 C33.4604651,31.9 28.7534884,35 22.5116279,35 C15.144186,35 9.20930233,29.2 9.20930233,22 C9.20930233,14.8 15.144186,9 22.5116279,9 C25.6837209,9 28.5488372,10.1 30.8,11.9 L37.3488372,5.5 C33.3581395,2.1 28.2418605,0 22.5116279,0 C10.027907,0 0,9.8 0,22 C0,34.2 10.027907,44 22.5116279,44 C33.7674419,44 44,36 44,22 C44,20.7 43.7953488,19.3 43.4883721,18 Z"
        id="path-5"></path>
    <path
        d="M43.4883721,18 L22.5116279,18 L22.5116279,26.5 L34.5860465,26.5 C33.4604651,31.9 28.7534884,35 22.5116279,35 C15.144186,35 9.20930233,29.2 9.20930233,22 C9.20930233,14.8 15.144186,9 22.5116279,9 C25.6837209,9 28.5488372,10.1 30.8,11.9 L37.3488372,5.5 C33.3581395,2.1 28.2418605,0 22.5116279,0 C10.027907,0 0,9.8 0,22 C0,34.2 10.027907,44 22.5116279,44 C33.7674419,44 44,36 44,22 C44,20.7 43.7953488,19.3 43.4883721,18 Z"
        id="path-7"></path>
  </defs>
  <g id="Page-1" stroke="none" stroke-width="1" fill="none" fill-rule="evenodd">
    <g id="Google_-G-_Logo">
      <g id="Clipped">
        <mask id="mask-2" fill="white">
          <use xlink:href="#path-1"></use>
        </mask>
        <g id="a"></g>
        <polygon id="Shape" fill="#FFFFFF" fill-rule="nonzero" mask="url(#mask-2)"
                 points="-2.04651163 35 -2.04651163 9 15.3488372 22"></polygon>
      </g>
      <g id="Clipped">
        <mask id="mask-4" fill="white">
          <use xlink:href="#path-3"></use>
        </mask>
        <g id="a"></g>
        <polygon id="Shape" fill="#FFFFFF" fill-rule="nonzero" mask="url(#mask-4)"
                 points="-2.04651163 9 15.3488372 22 22.5116279 15.9 47.0697674 12 47.0697674 -2 -2.04651163 -2"></polygon>
      </g>
      <g id="Clipped">
        <mask id="mask-6" fill="white">
          <use xlink:href="#path-5"></use>
        </mask>
        <g id="a"></g>
        <polygon id="Shape" fill="#FFFFFF" fill-rule="nonzero" mask="url(#mask-6)"
                 points="-2.04651163 35 28.6511628 12 36.7348837 13 47.0697674 -2 47.0697674 46 -2.04651163 46"></polygon>
      </g>
      <g id="Clipped">
        <mask id="mask-8" fill="white">
          <use xlink:href="#path-7"></use>
        </mask>
        <g id="a"></g>
        <polygon id="Shape" fill="#FFFFFF" fill-rule="nonzero" mask="url(#mask-8)"
                 points="47.0697674 46 15.3488372 22 11.255814 19 47.0697674 9"></polygon>
      </g>
    </g>
  </g>
</svg>