<svg width="13px" height="16px" viewBox="0 0 13 16" version="1.1" xmlns="http://www.w3.org/2000/svg" xmlns:xlink="http://www.w3.org/1999/xlink"><g id="Symbols" stroke="none" stroke-width="1" fill="none" fill-rule="evenodd"><g id="login" transform="translate(-45.000000, -274.000000)" fill="#C4C4C4"><path d="M54.8962651,279.490243 L54.8962651,277.990243 C54.8962651,275.920243 53.2162651,274.240243 51.1462651,274.240243 C49.0762651,274.240243 47.3962651,275.920243 47.3962651,277.990243 L47.3962651,279.490243 L46.6462651,279.490243 C45.8212651,279.490243 45.1462651,280.165243 45.1462651,280.990243 L45.1462651,288.490243 C45.1462651,289.315243 45.8212651,289.990243 46.6462651,289.990243 L55.6462651,289.990243 C56.4712651,289.990243 57.1462651,289.315243 57.1462651,288.490243 L57.1462651,280.990243 C57.1462651,280.165243 56.4712651,279.490243 55.6462651,279.490243 L54.8962651,279.490243 Z M51.1462651,286.240243 C50.3212651,286.240243 49.6462651,285.565243 49.6462651,284.740243 C49.6462651,283.915243 50.3212651,283.240243 51.1462651,283.240243 C51.9712651,283.240243 52.6462651,283.915243 52.6462651,284.740243 C52.6462651,285.565243 51.9712651,286.240243 51.1462651,286.240243 L51.1462651,286.240243 Z M53.4712651,279.490243 L48.8212651,279.490243 L48.8212651,277.990243 C48.8212651,276.707743 49.8637651,275.665243 51.1462651,275.665243 C52.4287651,275.665243 53.4712651,276.707743 53.4712651,277.990243 L53.4712651,279.490243 L53.4712651,279.490243 Z" id="Shape"></path></g></g></svg>
