<?xml version="1.0" encoding="iso-8859-1"?>
<!-- Generator: Adobe Illustrator 19.0.0, SVG Export Plug-In . SVG Version: 6.00 Build 0)  -->
<svg version="1.1" id="Layer_1" xmlns="http://www.w3.org/2000/svg" xmlns:xlink="http://www.w3.org/1999/xlink" x="0px" y="0px"
	 viewBox="0 0 511.999 511.999" style="enable-background:new 0 0 511.999 511.999;" xml:space="preserve">
<g>
	<g>
		<path d="M269.602,0c-23.274,0-42.141,18.867-42.141,42.141c0,5.063,0.895,9.918,2.532,14.416l37.932-0.624
			c1.557-3.78,3.812-7.572,6.96-11.186c10.915-12.978,24.096-15.017,33.45-19.22C301.888,10.516,286.975,0,269.602,0z"/>
	</g>
</g>
<g>
	<g>
		<path d="M372.095,145.933l-0.002-0.344c-0.133-26.399-21.719-47.876-48.117-47.876h-13.013
			c-1.362,11.556-2.412,20.453-3.87,32.826c-0.952,8.071-7.792,14.153-15.92,14.153h-32.403c-5.762,0-10.865-3.065-13.694-7.722
			l-29.546,23.456l0.009,327.172c0,13.476,10.925,24.4,24.4,24.4c13.476,0,24.4-10.925,24.4-24.4V292.571h10.535v195.029
			c0,13.476,10.925,24.399,24.4,24.399c13.476,0,24.399-10.925,24.399-24.399c0-31.405-0.443-343.046-0.443-341.787
			c0-2.258,1.827-4.091,4.086-4.098s4.098,1.814,4.111,4.072c0,0.001,0,0.001,0,0.002c0,0.002,0,0.003,0,0.006
			c0.036,7.006,0.345,55.116,0.345,146.776c0,11.23,9.103,20.333,20.333,20.333c11.23,0,20.333-9.103,20.333-20.333
			C372.439,196.62,372.517,230.058,372.095,145.933z"/>
	</g>
</g>
<g>
	<g>
		<path d="M247.4,83.958c-6.982-8.795-19.773-10.264-28.567-3.282l-71.587,56.834c-8.795,6.982-10.264,19.772-3.282,28.567
			c6.982,8.796,19.773,10.264,28.568,3.282l71.586-56.834C252.913,105.544,254.382,92.754,247.4,83.958z"/>
	</g>
</g>
<g>
	<g>
		<path d="M331.935,14.334c-0.639,3.768-0.782,10.934-6.022,17.75c-5.951,6.147-7.774,6.756-16.056,10.203
			c-6.061,2.212-15.817,4.51-22.792,12.884c-5.114,5.812-6.231,12.242-5.974,16.792h-18.017h-0.038
			c0.526,0.662,8.052,13.534,8.444,22.492c0.002,0,0.003,0,0.006,0c0.615,11.656-3.854,23.409-13.004,31.743
			c0.165,1.406,1.358,2.466,2.774,2.466h27.44c1.417,0,2.604-1.058,2.77-2.466c1.01-8.573,4.398-37.307,6.026-51.111
			c0.094-0.792-0.156-1.586-0.686-2.182c-0.53-0.597-1.29-0.941-2.088-0.941h-9.834c2.748-4.334,6.515-7.82,9.157-9.207
			c8.452-4.933,12.112-4.667,20.065-7.405c10.005-3.99,16.695-8.505,20.961-18.441C338.13,29.885,336.479,20.114,331.935,14.334z"/>
	</g>
</g>
<g>
</g>
<g>
</g>
<g>
</g>
<g>
</g>
<g>
</g>
<g>
</g>
<g>
</g>
<g>
</g>
<g>
</g>
<g>
</g>
<g>
</g>
<g>
</g>
<g>
</g>
<g>
</g>
<g>
</g>
</svg>
