<svg width="14px" height="14px" viewBox="0 0 14 14" version="1.1" xmlns="http://www.w3.org/2000/svg"
     xmlns:xlink="http://www.w3.org/1999/xlink">
  <g id="Symbols" stroke="none" stroke-width="1" fill="none" fill-rule="evenodd">
    <g id="Sign-up" transform="translate(-44.000000, -245.000000)" fill="#C4C4C4">
      <g id="Group-5">
        <g id="Group-3-Copy" transform="translate(28.000000, 233.000000)">
          <path
              d="M25.9288755,20.6565894 C27.9769598,21.2159201 30,22.2970347 30,23.8333333 L30,26 L16,26 L16,23.8333333 C16,22.2970347 18.0230402,21.2159201 20.0711245,20.6565894 C20.9195348,21.191066 21.9240325,21.5 23,21.5 C24.0759675,21.5 25.0804652,21.191066 25.9288755,20.6565894 Z M27,16 C27,18.2133333 25.2066667,20 23,20 C20.7933333,20 19,18.2133333 19,16 C19,13.7933333 20.7933333,12 23,12 C25.2066667,12 27,13.7933333 27,16 Z"
              id="user_icon"></path>
        </g>
      </g>
    </g>
  </g>
</svg>
